<?xml version="1.0" standalone="no"?>
<!DOCTYPE svg PUBLIC "-//W3C//DTD SVG 20010904//EN"
 "http://www.w3.org/TR/2001/REC-SVG-20010904/DTD/svg10.dtd">
<svg version="1.0" xmlns="http://www.w3.org/2000/svg"
 width="64.000000pt" height="64.000000pt" viewBox="0 0 64.000000 64.000000"
 preserveAspectRatio="xMidYMid meet">

<g transform="translate(0.000000,64.000000) scale(0.100000,-0.100000)"
fill="#000000" stroke="none">
<path d="M190 550 c0 -5 9 -10 20 -10 18 0 20 -7 20 -65 0 -37 4 -65 10 -65 6
0 10 28 10 65 0 63 1 65 25 65 14 0 25 5 25 10 0 6 -25 10 -55 10 -30 0 -55
-4 -55 -10z"/>
<path d="M322 508 c-30 -82 -34 -98 -24 -98 5 0 12 9 15 20 4 15 14 20 37 20
23 0 33 -5 37 -20 6 -22 23 -28 22 -7 -1 24 -46 131 -56 134 -6 2 -20 -20 -31
-49z m42 -10 c9 -35 8 -38 -14 -38 -11 0 -20 3 -20 8 0 19 13 52 20 52 4 0 10
-10 14 -22z"/>
<path d="M440 549 c0 -5 5 -7 10 -4 6 3 10 8 10 11 0 2 -4 4 -10 4 -5 0 -10
-5 -10 -11z"/>
<path d="M440 466 c0 -31 5 -56 10 -56 6 0 10 22 10 49 0 28 -4 53 -10 56 -6
4 -10 -15 -10 -49z"/>
<path d="M420 241 c0 -24 -3 -28 -20 -24 -29 8 -50 -14 -50 -52 0 -40 17 -55
58 -52 l32 2 0 78 c0 45 -4 77 -10 77 -5 0 -10 -13 -10 -29z m-12 -40 c22 -13
11 -65 -14 -69 -25 -4 -35 22 -23 56 9 24 17 26 37 13z"/>
<path d="M480 260 c0 -5 5 -10 11 -10 5 0 7 5 4 10 -3 6 -8 10 -11 10 -2 0 -4
-4 -4 -10z"/>
<path d="M40 245 c-17 -20 -5 -47 31 -68 38 -21 33 -42 -9 -42 -38 0 -37 -19
0 -23 27 -3 58 20 58 44 0 8 -16 24 -35 35 -19 12 -35 27 -35 34 0 16 25 26
45 19 8 -4 15 -1 15 5 0 16 -56 13 -70 -4z"/>
<path d="M150 235 c0 -8 -5 -15 -11 -15 -8 0 -8 -4 -1 -13 6 -7 12 -30 14 -52
2 -33 7 -41 26 -43 12 -2 22 1 22 7 0 6 -7 11 -15 11 -23 0 -21 77 3 83 16 4
16 5 0 6 -10 0 -18 8 -18 16 0 8 -4 15 -10 15 -5 0 -10 -7 -10 -15z"/>
<path d="M234 170 l1 -55 40 0 c38 1 39 2 43 39 5 57 -11 82 -17 26 -5 -37
-10 -46 -28 -48 -23 -3 -25 2 -37 68 -2 14 -3 0 -2 -30z"/>
<path d="M480 165 c0 -30 5 -55 10 -55 6 0 10 25 10 55 0 30 -4 55 -10 55 -5
0 -10 -25 -10 -55z"/>
<path d="M542 208 c-7 -7 -12 -26 -12 -43 0 -37 15 -55 46 -55 31 0 54 26 54
59 0 34 -17 51 -50 51 -14 0 -31 -5 -38 -12z m58 -12 c6 -8 10 -25 8 -38 -2
-17 -10 -23 -28 -23 -20 0 -26 6 -28 29 -5 40 25 59 48 32z"/>
</g>
</svg>
